{"title":"Pervyones.10.06.14.Sweet.Cat.Barra.Brass.Angella.Christin.Tiffan","uid":10333187,"size":582146360,"categoryP":"porn","categoryS":"other","magnet":"?xt=urn:btih:b25819067cbeadf98c6e3b8ee6ca2b6a224d0de2&amp;dn=Pervyones.10.06.14.Sweet.Cat.Barra.Brass.Angella.Christin.Tiffan&amp;tr=udp%3A%2F%2Ftracker.openbittorrent.com%3A80&amp;tr=udp%3A%2F%2Fopen.demonii.com%3A1337&amp;tr=udp%3A%2F%2Ftracker.coppersurfer.tk%3A6969&amp;tr=udp%3A%2F%2Fexodus.desync.com%3A6969","seeders":2,"leechers":0,"uploader":"rturner77","files":-1,"time":1402437734,"description":"Screens:\n &lt;a href=&quot;\nhttp://bayimg.com/fAokDAaFK&quot; rel=&quot;nofollow&quot; target=&quot;_NEW&quot;&gt;\nhttp://bayimg.com/fAokDAaFK&lt;/a&gt;\n\n\nGeneral\nComplete name                               /sd2.mp4\nFormat                                   : MPEG-4\nFormat profile                           : Base Media / Version 2\nCodec ID                                 : mp42\nFile size                                : 555 MiB\nDuration                                 : 36mn 34s\nOverall bit rate mode                    : Variable\nOverall bit rate                         : 2 120 Kbps\nEncoded date                             : UTC 2014-06-09 20:33:23\nTagged date                              : UTC 2014-06-09 22:59:10\n\nVideo\nID                                       : 2\nFormat                                   : AVC\nFormat/Info                              : Advanced Video Codec\nFormat profile                           : &lt;a class=&quot;__cf_email__&quot; href=&quot;/cdn-cgi/l/email-protection&quot; data-cfemail=&quot;4508242c2b0509766b74&quot;&gt;[email&amp;#160;protected]&lt;/a&gt;&lt;script cf-hash='f9e31' type=&quot;text/javascript&quot;&gt;\n/* &lt;![CDATA[ */!function(){try{var t=&quot;currentScript&quot;in document?document.currentScript:function(){for(var t=document.getElementsByTagName(&quot;script&quot;),e=t.length;e--;)if(t[e].getAttribute(&quot;cf-hash&quot;))return t[e]}();if(t&amp;&amp;t.previousSibling){var e,r,n,i,c=t.previousSibling,a=c.getAttribute(&quot;data-cfemail&quot;);if(a){for(e=&quot;&quot;,r=parseInt(a.substr(0,2),16),n=2;a.length-n;n+=2)i=parseInt(a.substr(n,2),16)^r,e+=String.fromCharCode(i);e=document.createTextNode(e),c.parentNode.replaceChild(e,c)}}}catch(u){}}();/* ]]&gt; */&lt;/script&gt;\nFormat settings, CABAC                   : No\nFormat settings, ReFrames                : 2 frames\nFormat settings, GOP                     : M=2, N=25\nCodec ID                                 : avc1\nCodec ID/Info                            : Advanced Video Coding\nDuration                                 : 36mn 34s\nBit rate mode                            : Variable\nBit rate                                 : 1 955 Kbps\nMaximum bit rate                         : 2 507 Kbps\nWidth                                    : 960 pixels\nHeight                                   : 540 pixels\nDisplay aspect ratio                     : 16:9\nFrame rate mode                          : Constant\nFrame rate                               : 25.000 fps\nColor space                              : YUV\nChroma subsampling                       : 4:2:0\nBit depth                                : 8 bits\nScan type                                : Progressive\nBits/(Pixel*Frame)                       : 0.151\nStream size                              : 511 MiB (92%)\nLanguage                                 : English\nEncoded date                             : UTC 2014-06-09 22:40:34\nTagged date                              : UTC 2014-06-09 22:59:10\nColor primaries                          : BT.709-5, BT.1361, IEC 61966-2-4, SMPTE RP177\nTransfer characteristics                 : BT.709-5, BT.1361\nMatrix coefficients                      : BT.709-5, BT.1361, IEC 61966-2-4 709, SMPTE RP177\n\nAudio\nID                                       : 1\nFormat                                   : AAC\nFormat/Info                              : Advanced Audio Codec\nFormat profile                           : LC\nCodec ID                                 : 40\nDuration                                 : 36mn 34s\nBit rate mode                            : Constant\nBit rate                                 : 160 Kbps\nChannel(s)                               : 2 channels\nChannel positions                        : Front: L R\nSampling rate                            : 44.1 KHz\nCompression mode                         : Lossy\nDelay relative to video                  : -2ms\nStream size                              : 42.2 MiB (8%)\nLanguage                                 : English\nEncoded date                             : UTC 2014-06-09 22:40:34\nTagged date                              : UTC 2014-06-09 22:59:10","torrent":{"xt":"urn:btih:b25819067cbeadf98c6e3b8ee6ca2b6a224d0de2","amp;dn":"Pervyones.10.06.14.Sweet.Cat.Barra.Brass.Angella.Christin.Tiffan","amp;tr":["udp%3A%2F%2Ftracker.openbittorrent.com%3A80","udp%3A%2F%2Fopen.demonii.com%3A1337","udp%3A%2F%2Ftracker.coppersurfer.tk%3A6969","udp%3A%2F%2Fexodus.desync.com%3A6969"],"infoHash":"b25819067cbeadf98c6e3b8ee6ca2b6a224d0de2","infoHashBuffer":{"type":"Buffer","data":[178,88,25,6,124,190,173,249,140,110,59,142,230,202,43,106,34,77,13,226]},"announce":[],"urlList":[]}}